<svg xmlns="http://www.w3.org/2000/svg" width="162" height="47" viewBox="0 0 162 47">
    <path fill="#108EE9" fill-rule="evenodd" d="M0 23.5C0 10.522 10.4 0 23.23 0s23.23 10.522 23.23 23.5c0 12.98-10.4 23.5-23.23 23.5S0 36.48 0 23.5zm17.038-5.46c2.111-.315 4.065-1.129 6.045-1.867 1.61-.6 3.22-1.222 4.874-1.684 2.831-.793 5.567-.581 8.075 1.122.463.313.705.721.704 1.283-.005 1.968-.002 3.936-.002 5.905V29.84c0 .509-.188.618-.631.344-1.916-1.187-4.01-1.588-6.23-1.38-1.52.145-2.989.54-4.433 1.025-1.65.554-3.292 1.136-4.947 1.675-1.489.483-3.009.834-4.582.9-2.02.087-3.897-.384-5.612-1.457-.41-.256-.576-.647-.575-1.127.003-2.34.003-4.68.003-7.02l-.001-3.269c0-.885-.008-1.77.008-2.655.002-.153.063-.363.172-.437.084-.056.309.025.43.106.94.623 1.936 1.107 3.039 1.372a8.895 8.895 0 0 0 2.093.244c.522 0 1.045-.042 1.57-.12zm66.709 3.824c.123-5.531 4.54-9.979 9.982-9.979 5.444 0 9.86 4.448 9.983 9.98h.012v13.79h-4.996v-5.098H88.73v5.098h-4.995V21.864h.01zm5.39.068v3.459h10.265v-3.459H99.4c-.015-2.866-2.305-5.185-5.13-5.185-2.824 0-5.114 2.32-5.13 5.185h-.002zm52.415-.068c.122-5.531 4.54-9.979 9.982-9.979 5.443 0 9.86 4.448 9.983 9.98h.012v13.79h-4.997v-5.098h-9.996v5.098h-4.996V21.864h.012zm4.85.068v3.459h10.265v-3.459h-.002c-.016-2.866-2.306-5.185-5.13-5.185s-5.114 2.32-5.13 5.185h-.003zm-34.021-.068c.121-5.532 4.538-9.979 9.981-9.979s9.86 4.447 9.983 9.98h.011v13.79h-4.996v-13.59c-.018-2.804-2.247-5.075-4.998-5.075-2.75 0-4.98 2.27-4.996 5.075h-.002v13.59h-4.996v-13.79h.013zM63.37 11.89c.03 0 .058-.005.088-.005.03 0 .06.005.09.005h.38l-.066.015c6.236.22 11.229 5.44 11.229 11.862 0 6.435-5.01 11.662-11.26 11.865l.096.023h-8.825V11.89H63.371zm-3.405 4.857v.983l.01-.002v12.085l-.01-.003v.983l3.895-.01c3.554-.235 6.369-3.279 6.369-7.009 0-3.739-2.83-6.788-6.397-7.01l-3.867-.017z"/>
</svg>
